<svg width="256" height="256" viewBox="0 -45 144 150" fill="none" xmlns="http://www.w3.org/2000/svg">
<path d="M2.34421 51.12C1.86421 51.12 1.45621 50.952 1.12021 50.616C0.784211 50.28 0.616211 49.872 0.616211 49.392V2.52C0.616211 1.992 0.760211 1.56 1.04821 1.224C1.38421 0.888 1.81621 0.719999 2.34421 0.719999H20.9922C26.8482 0.719999 31.4322 2.088 34.7442 4.824C38.1042 7.56 39.7842 11.448 39.7842 16.488C39.7842 19.992 38.9202 22.944 37.1922 25.344C35.5122 27.696 33.1602 29.4 30.1362 30.456L40.6482 48.816C40.7922 49.104 40.8642 49.368 40.8642 49.608C40.8642 50.04 40.6962 50.4 40.3602 50.688C40.0722 50.976 39.7362 51.12 39.3522 51.12H32.8002C32.0322 51.12 31.4322 50.952 31.0002 50.616C30.6162 50.28 30.2562 49.8 29.9202 49.176L20.6322 32.112H10.6242V49.392C10.6242 49.872 10.4562 50.28 10.1202 50.616C9.83221 50.952 9.42421 51.12 8.89621 51.12H2.34421ZM20.7762 23.976C23.6562 23.976 25.8162 23.328 27.2562 22.032C28.7442 20.736 29.4882 18.864 29.4882 16.416C29.4882 13.968 28.7442 12.072 27.2562 10.728C25.8162 9.384 23.6562 8.712 20.7762 8.712H10.6242V23.976H20.7762Z" fill="#24C289"/>
<path d="M56.7087 51.12C55.9887 51.12 55.4127 50.928 54.9807 50.544C54.5487 50.16 54.2847 49.632 54.1887 48.96L46.5293 9.78952C46.2012 8.11142 44.8427 6.82746 43.1487 6.59446L15.6207 2.808L15.5487 2.232C15.5487 1.8 15.6927 1.44 15.9807 1.152C16.3167 0.864 16.6767 0.719999 17.0607 0.719999H53.3967C54.5967 0.719999 55.2687 1.2 55.4127 2.16L61.3887 34.776L67.8687 13.68C68.3487 12.48 69.1407 11.88 70.2447 11.88H74.1327C75.3327 11.88 76.1007 12.48 76.4367 13.68L82.9887 34.704L88.9647 2.16C89.0607 1.632 89.2527 1.272 89.5407 1.08C89.8767 0.839999 90.3567 0.719999 90.9807 0.719999L124.5 0.00634737C124.884 0.00634737 126.037 0.864 126.325 1.152C126.613 1.44 126.757 1.8 126.757 2.232C126.757 2.472 126.733 2.664 126.685 2.808L101.125 6.57173C99.4467 6.81878 98.1071 8.09703 97.7816 9.76143L90.1167 48.96C89.8767 50.4 89.0367 51.12 87.5967 51.12H82.7727C82.1007 51.12 81.5487 50.952 81.1167 50.616C80.6847 50.28 80.3967 49.848 80.2527 49.32L72.1887 25.272L64.1247 49.32C63.6447 50.52 62.7807 51.12 61.5327 51.12H56.7087Z" fill="#24C289"/>
<path d="M124.214 51.84C119.942 51.84 116.27 51.192 113.198 49.896C110.126 48.6 107.798 46.896 106.214 44.784C104.63 42.672 103.79 40.392 103.694 37.944C103.694 37.512 103.838 37.152 104.126 36.864C104.414 36.576 104.774 36.432 105.206 36.432H111.614C112.19 36.432 112.622 36.552 112.91 36.792C113.246 36.984 113.558 37.32 113.846 37.8C114.326 39.432 115.43 40.8 117.158 41.904C118.886 43.008 121.238 43.56 124.214 43.56C127.622 43.56 130.19 43.008 131.918 41.904C133.646 40.752 134.51 39.168 134.51 37.152C134.51 35.808 134.054 34.704 133.142 33.84C132.278 32.976 130.958 32.232 129.182 31.608C127.454 30.984 124.862 30.216 121.406 29.304C115.742 27.96 111.59 26.184 108.95 23.976C106.358 21.72 105.062 18.528 105.062 14.4C105.062 11.616 105.806 9.144 107.294 6.984C108.83 4.824 111.014 3.12 113.846 1.872C116.726 0.624001 120.062 0 123.854 0C127.79 0 131.198 0.696 134.078 2.088C136.958 3.48 139.142 5.232 140.63 7.344C142.166 9.408 142.982 11.472 143.078 13.536C143.078 13.968 142.934 14.328 142.646 14.616C142.358 14.904 141.998 15.048 141.566 15.048H134.87C133.862 15.048 133.166 14.592 132.782 13.68C132.494 12.144 131.534 10.872 129.902 9.864C128.27 8.808 126.254 8.28 123.854 8.28C121.166 8.28 119.054 8.784 117.518 9.792C115.982 10.8 115.214 12.264 115.214 14.184C115.214 15.528 115.598 16.632 116.366 17.496C117.134 18.36 118.334 19.128 119.966 19.8C121.646 20.472 124.046 21.216 127.166 22.032C131.39 22.992 134.75 24.072 137.246 25.272C139.79 26.472 141.662 27.984 142.862 29.808C144.062 31.632 144.662 33.96 144.662 36.792C144.662 39.864 143.798 42.552 142.07 44.856C140.39 47.112 137.99 48.84 134.87 50.04C131.798 51.24 128.246 51.84 124.214 51.84Z" fill="#24C289"/>
</svg>
